# Blender v2.81 (sub 16) OBJ File: 'sale2.blend'
# www.blender.org
mtllib sale2.mtl
o Plane
v -6.564761 -0.037239 5.960637
v 7.287365 -0.037239 5.960637
v -6.564761 -0.037239 -7.891489
v 7.287365 -0.037239 -7.891489
v -0.638697 -0.027679 5.381727
v -0.638697 1.972321 5.381727
v -0.638697 -0.027679 5.074803
v -0.638697 1.972321 5.074803
v 1.361303 -0.027679 5.381727
v 1.361303 1.972321 5.381727
v 1.361303 -0.027679 5.074803
v 1.361303 1.972321 5.074803
v 2.971494 1.972321 4.250717
v 2.971494 -0.027679 4.250717
v 2.971494 -0.027679 4.557642
v 2.971494 1.972321 4.557642
v 4.236006 1.972321 5.098565
v 4.236006 -0.027679 5.098565
v 4.236006 -0.027679 5.405488
v 4.236006 1.972321 5.405488
v 6.339255 1.972321 5.098565
v 6.339255 -0.027679 5.098565
v 6.339255 -0.027679 5.405488
v 6.339255 1.972321 5.405488
v 6.621500 1.972321 5.098565
v 6.621500 -0.027679 5.098565
v 6.621500 -0.027679 5.405488
v 6.621500 1.972321 5.405488
v 6.339255 1.972321 1.673497
v 6.339255 -0.027679 1.673497
v 6.621500 1.972321 1.673497
v 6.621500 -0.027679 1.673497
v 5.010460 1.972321 0.597743
v 5.010460 -0.027679 0.597743
v 5.292705 1.972321 0.597743
v 5.292705 -0.027679 0.597743
v 4.094309 1.972321 -0.686236
v 4.094309 -0.027679 -0.686236
v 4.376553 1.972321 -0.686236
v 4.376553 -0.027679 -0.686236
v 4.094309 1.972321 -2.485206
v 4.094309 -0.027679 -2.485206
v 4.376553 1.972321 -2.485206
v 4.376553 -0.027679 -2.485206
v 5.073880 1.972321 -4.336280
v 5.073880 -0.027679 -4.336280
v 5.356124 1.972321 -4.336280
v 5.356124 -0.027679 -4.336280
v 6.251976 1.972321 -5.050030
v 6.251976 -0.027679 -5.050030
v 6.534220 1.972321 -5.050030
v 6.534220 -0.027679 -5.050030
v 6.251976 1.972321 -7.434758
v 6.251976 -0.027679 -7.434758
v 6.534220 1.972321 -7.434758
v 6.534220 -0.027679 -7.434758
v 6.534220 1.972321 -7.147638
v 6.251976 1.972321 -7.147638
v 6.534220 -0.027679 -7.147638
v 6.251976 -0.027679 -7.147638
v -5.722281 1.972321 -7.434758
v -5.722281 -0.027679 -7.434758
v -5.722281 -0.027679 -7.147638
v -5.722281 1.972321 -7.147638
v -1.222923 -0.027679 4.321331
v -1.222923 -0.027679 4.628255
v -1.222923 1.972321 4.628255
v -1.222923 1.972321 4.321331
v -3.932244 -0.027679 4.321331
v -3.932244 -0.027679 4.628255
v -3.932244 1.972321 4.628255
v -3.932244 1.972321 4.321331
v -5.545536 -0.027679 2.446444
v -5.545536 -0.027679 2.753368
v -5.545536 1.972321 2.753368
v -5.545536 1.972321 2.446444
v -5.836371 -0.027679 2.446444
v -5.836371 -0.027679 2.753368
v -5.836371 1.972321 2.753368
v -5.836371 1.972321 2.446444
v -5.545536 1.972321 -1.527061
v -5.545536 -0.027679 -1.527061
v -5.836371 1.972321 -1.527061
v -5.836371 -0.027679 -1.527061
v -4.118587 1.972321 -2.997917
v -4.118587 -0.027679 -2.997917
v -4.409422 1.972321 -2.997917
v -4.409422 -0.027679 -2.997917
v -4.118587 1.972321 -5.840123
v -4.118587 -0.027679 -5.840123
v -4.409422 1.972321 -5.840123
v -4.409422 -0.027679 -5.840123
v -5.443324 1.972321 -7.154948
v -5.443324 -0.027679 -7.154948
v -5.734159 1.972321 -7.154948
v -5.734159 -0.027679 -7.154948
v 4.094309 1.617814 -2.056680
v 4.376553 1.617814 -2.056680
v 4.094309 1.507052 -1.104738
v 4.094309 1.617814 -1.104738
v 4.376553 1.617814 -1.104738
v 4.094309 -0.007155 -1.104738
v 4.376553 0.437589 -1.104738
v 4.376553 -0.007155 -1.104738
v 4.094309 -0.007155 -2.056680
v 4.376553 -0.007155 -2.056680
v 4.094309 0.448733 -2.056680
v -5.836371 1.593371 -0.051160
v -5.545536 1.593371 -0.051160
v -5.836371 0.452107 1.604812
v -5.545536 0.452107 1.604812
v -5.836371 0.452107 -0.051160
v -5.545536 0.452107 -0.051160
v -5.836371 1.593371 1.604812
v -5.545536 1.593371 1.604812
v -2.021373 1.530030 -7.434759
v -2.021373 1.530030 -7.147638
v -2.021373 0.388766 -7.434759
v -2.021373 0.388766 -7.147638
v -3.162637 0.388766 -7.434759
v -3.162637 0.388766 -7.147638
v -3.162637 1.530030 -7.434759
v -3.162637 1.530030 -7.147638
v -2.021372 1.354177 -7.434758
v 4.160084 -0.027005 -1.109880
v 4.160084 1.628594 -1.109880
v 4.160084 -0.027005 -2.055470
v 4.160084 1.628594 -2.055470
v 4.341857 -0.027005 -1.109880
v 4.341857 1.628594 -1.109880
v 4.341857 -0.027005 -2.055470
v 4.341857 1.628594 -2.055470
vt 0.489058 0.759915
vt 0.517088 0.830579
vt 0.489058 0.830579
vt 0.228050 0.538859
vt 0.304067 0.489426
vt 0.304067 0.538859
vt 0.456101 0.559926
vt 0.380084 0.618670
vt 0.380084 0.559926
vt 0.456101 0.489426
vt 0.800068 0.895664
vt 0.724052 0.906508
vt 0.724052 0.895664
vt 0.724052 0.011684
vt 0.800068 0.000840
vt 0.800068 0.011684
vt 0.456101 0.618670
vt 0.380084 0.661201
vt 0.861269 0.877392
vt 0.800068 0.906508
vt 0.861269 0.029956
vt 0.861269 0.040801
vt 0.489058 0.772083
vt 0.456101 0.701419
vt 0.489058 0.701419
vt 0.456101 0.661201
vt 0.380084 0.735341
vt 0.909331 0.896504
vt 0.909331 0.907348
vt 0.909331 0.010844
vt 0.152034 0.944125
vt 0.228050 0.891464
vt 0.228050 0.944125
vt 0.456101 0.735341
vt 0.380084 0.745290
vt 0.989272 0.907348
vt 0.909331 0.000000
vt 0.989272 0.010844
vt 0.152034 0.891464
vt 0.228050 0.839479
vt 0.380084 0.753039
vt 0.456101 0.745290
vt 0.456101 0.753039
vt 0.989272 0.896504
vt 1.000000 0.907348
vt 0.989272 0.000000
vt 1.000000 0.010844
vt 1.000000 0.775489
vt 1.000000 0.896504
vt 0.503700 0.701419
vt 0.456101 0.630755
vt 0.503700 0.630755
vt 0.380084 0.839514
vt 0.989272 0.131859
vt 0.304067 0.826822
vt 0.228050 0.947793
vt 0.228050 0.826822
vt 0.938767 0.169868
vt 0.914673 0.215234
vt 0.903946 0.215234
vt 0.949495 0.169868
vt 0.456101 0.839514
vt 0.380084 0.899518
vt 0.989272 0.775488
vt 0.949495 0.737480
vt 0.903946 0.692114
vt 0.914673 0.628552
vt 0.914673 0.692114
vt 0.456101 0.899518
vt 0.380084 0.954580
vt 0.938767 0.737480
vt 0.304067 0.764168
vt 0.380084 0.719689
vt 0.380084 0.764168
vt 0.941178 0.563150
vt 0.951905 0.563150
vt 0.379304 0.671286
vt 0.380084 0.656151
vt 0.903946 0.278795
vt 0.438417 0.965146
vt 0.393558 0.965146
vt 0.951905 0.344198
vt 0.985955 0.369416
vt 0.941178 0.344198
vt 0.304067 0.656151
vt 0.380084 0.589841
vt 0.914673 0.278795
vt 0.526497 0.989586
vt 0.602513 0.950596
vt 0.602513 0.989586
vt 0.996683 0.443529
vt 0.985955 0.453674
vt 0.985955 0.443529
vt 0.526497 0.950595
vt 0.602513 0.907348
vt 0.985955 0.537932
vt 0.996683 0.537932
vt 0.304067 0.589841
vt 0.380084 0.563512
vt 0.076017 0.556611
vt 0.152033 0.549635
vt 0.152033 0.556611
vt 0.152033 0.542386
vt 0.076017 0.549635
vt 0.076017 0.542386
vt 0.985955 0.463819
vt 0.996683 0.453674
vt 0.996683 0.463819
vt 0.092828 0.761100
vt 0.076017 0.852574
vt 0.304067 0.563512
vt 0.380084 0.489426
vt 0.152033 0.489426
vt 0.076017 0.489426
vt 0.996683 0.369416
vt 0.524932 0.701419
vt 0.514023 0.630755
vt 0.524932 0.630755
vt 0.530833 0.443529
vt 0.530833 0.453674
vt 0.985955 0.453674
vt 0.000000 0.489426
vt 0.015828 0.781061
vt 0.000000 0.911517
vt 0.701846 0.038306
vt 0.598869 0.027461
vt 0.701846 0.027461
vt 0.724052 0.000840
vt 0.701846 0.879887
vt 0.701846 0.869042
vt 0.228050 0.572323
vt 0.304067 0.639288
vt 0.228050 0.726500
vt 0.228050 0.639288
vt 0.598870 0.869042
vt 0.304067 0.572323
vt 0.076017 0.948078
vt 0.152033 0.852574
vt 0.152033 0.948078
vt 0.537551 0.813643
vt 0.526497 0.802798
vt 0.537551 0.802798
vt 0.525687 0.560090
vt 0.456101 0.489426
vt 0.525687 0.489426
vt 0.598869 0.038306
vt 0.537551 0.093705
vt 0.228050 0.489426
vt 0.152034 0.500266
vt 0.152034 0.489426
vt 0.170270 0.588480
vt 0.152034 0.640608
vt 0.514659 0.560090
vt 0.525687 0.630755
vt 0.514659 0.630755
vt 0.537551 0.104550
vt 0.526497 0.093705
vt 0.537551 0.662406
vt 0.580733 0.610437
vt 0.591787 0.610437
vt 0.285831 0.747749
vt 0.242454 0.747749
vt 0.526497 0.244942
vt 0.526497 0.104550
vt 0.591787 0.296911
vt 0.580733 0.397332
vt 0.580733 0.296911
vt 0.514023 0.630755
vt 0.456101 0.560090
vt 0.514023 0.560090
vt 0.537551 0.244942
vt 0.228050 0.640608
vt 0.152034 0.693914
vt 0.228050 0.794299
vt 0.152034 0.839479
vt 0.152034 0.794299
vt 0.228050 0.693914
vt 0.591787 0.510016
vt 0.304067 0.909055
vt 0.380084 0.837296
vt 0.380084 0.909055
vt 0.304067 0.771356
vt 0.380084 0.764168
vt 0.380084 0.771356
vt 0.580733 0.510016
vt 0.541436 0.463560
vt 0.304067 0.837296
vt 0.541436 0.443788
vt 0.530382 0.443788
vt 0.455321 0.989181
vt 0.455321 0.965146
vt 0.456101 0.954580
vt 0.499760 0.887993
vt 0.489058 0.887993
vt 0.489058 0.846687
vt 0.317541 0.671286
vt 0.317541 0.704908
vt 0.304067 0.719689
vt 0.489058 0.830579
vt 0.478330 0.864214
vt 0.478330 0.830579
vt 0.397768 0.972122
vt 0.478330 0.897848
vt 0.489058 0.864214
vt 0.489058 0.897848
vt 0.285831 0.789559
vt 0.304067 0.726500
vt 0.304067 0.826822
vt 0.510789 0.830579
vt 0.499760 0.870903
vt 0.499760 0.830579
vt 0.213647 0.588480
vt 0.228050 0.500266
vt 0.467155 0.830579
vt 0.456101 0.889088
vt 0.456101 0.830579
vt 0.285831 0.754938
vt 0.467155 0.889088
vt 0.478209 0.830579
vt 0.478209 0.889088
vt 0.521698 0.911226
vt 0.510789 0.911226
vt 0.510789 0.905013
vt 0.136205 0.761100
vt 0.152034 0.852574
vt 0.059206 0.781061
vt 0.076017 0.489426
vt 0.076017 0.911517
vt 0.136205 0.789308
vt 0.092828 0.782059
vt 0.136205 0.782059
vt 0.499760 0.911226
vt 0.510673 0.870903
vt 0.510673 0.911226
vt 0.510789 0.830579
vt 0.521702 0.870903
vt 0.510789 0.870903
vt 0.517088 0.759915
vt 0.228050 0.489426
vt 0.380084 0.489426
vt 0.861269 0.866547
vt 0.456101 0.772083
vt 0.152034 0.839479
vt 1.000000 0.000000
vt 0.456101 0.701419
vt 1.000000 0.131859
vt 0.304067 0.947793
vt 0.903946 0.628552
vt 0.321751 0.704908
vt 0.379304 0.704908
vt 0.361976 0.671286
vt 0.393558 0.989181
vt 0.380084 1.000000
vt 0.996683 0.453674
vt 0.526497 0.907348
vt 0.099511 0.761100
vt 0.092828 0.789308
vt 0.304067 0.489426
vt 0.514023 0.701419
vt 0.530833 0.453674
vt 0.530833 0.463819
vt 0.015828 0.821290
vt 0.598870 0.879887
vt 0.076017 0.852574
vt 0.526497 0.813643
vt 0.456101 0.560090
vt 0.170270 0.529992
vt 0.213647 0.529992
vt 0.525687 0.560090
vt 0.526497 0.662406
vt 0.242454 0.789559
vt 0.228050 0.826822
vt 0.591787 0.397332
vt 0.456101 0.630755
vt 0.228050 0.839479
vt 0.304067 0.764168
vt 0.530382 0.463560
vt 0.456101 1.000000
vt 0.489058 0.830579
vt 0.499760 0.830579
vt 0.489058 0.864214
vt 0.455321 0.972122
vt 0.393558 0.972122
vt 0.478330 0.864214
vt 0.510789 0.870903
vt 0.467155 0.889088
vt 0.242454 0.754938
vt 0.467155 0.830579
vt 0.510789 0.870903
vt 0.521698 0.870903
vt 0.059206 0.821290
vt 0.499760 0.870903
vt 0.521702 0.830579
vt 0.000000 0.000000
vt 0.526497 0.489426
vt 0.000000 0.489426
vt 0.526497 0.000000
vt 0.524985 0.759915
vt 0.489058 0.701419
vt 0.524985 0.701419
vt 0.456101 0.772083
vt 0.460934 0.830579
vt 0.456101 0.830579
vt 0.460934 0.772083
vt 0.486616 0.830579
vt 0.507130 0.630755
vt 0.514023 0.689251
vt 0.507130 0.689251
vt 0.524985 0.759915
vt 0.518076 0.793325
vt 0.518076 0.759915
vt 0.518076 0.826734
vt 0.524985 0.793325
vt 0.524985 0.826734
vt 0.489058 0.759915
vt 0.486616 0.772083
vt 0.514023 0.630755
vt 0.524985 0.793325
vt 0.518076 0.793325
vn -0.7903 0.0000 0.6128
vn 0.0000 0.0000 -1.0000
vn 0.4556 0.0000 0.8902
vn 0.0000 0.0000 1.0000
vn 0.0000 -1.0000 0.0000
vn 0.0000 1.0000 0.0000
vn -0.5569 0.0000 0.8306
vn -0.4556 0.0000 -0.8902
vn 0.5569 0.0000 -0.8306
vn 1.0000 0.0000 0.0000
vn -0.6292 0.0000 0.7772
vn -1.0000 0.0000 0.0000
vn 0.6292 0.0000 -0.7772
vn 0.8140 0.0000 -0.5808
vn -0.8140 0.0000 0.5808
vn -0.8839 0.0000 -0.4677
vn 0.8839 0.0000 0.4677
vn 0.5182 0.0000 0.8553
vn -0.5182 0.0000 -0.8553
vn 0.7903 0.0000 -0.6128
vn 0.7580 0.0000 -0.6522
vn -0.7580 0.0000 0.6522
vn 0.7177 0.0000 0.6963
vn -0.7177 0.0000 -0.6963
vn -0.7044 0.0000 0.7098
vn 0.7044 0.0000 -0.7098
vn 1.0000 0.0001 0.0000
usemtl Material.001
s off
f 6/1/1 66/2/1 5/3/1
f 8/4/2 11/5/2 7/6/2
f 9/7/3 16/8/3 10/9/3
f 10/9/4 5/10/4 9/7/4
f 11/11/5 5/12/5 7/13/5
f 8/14/6 10/15/6 12/16/6
f 15/17/7 20/18/7 16/8/7
f 11/11/5 15/19/5 9/20/5
f 12/16/6 16/21/6 13/22/6
f 12/23/8 14/24/8 11/25/8
f 19/26/4 24/27/4 20/18/4
f 15/19/5 18/28/5 19/29/5
f 16/21/6 17/30/6 13/22/6
f 13/31/9 18/32/9 14/33/9
f 23/34/4 28/35/4 24/27/4
f 18/28/5 23/36/5 19/29/5
f 20/37/6 21/38/6 17/30/6
f 17/39/2 22/40/2 18/32/2
f 25/41/10 27/42/10 26/43/10
f 22/44/5 27/45/5 23/36/5
f 24/46/6 25/47/6 21/38/6
f 22/44/5 32/48/5 26/49/5
f 29/50/11 34/51/11 30/52/11
f 26/43/10 31/53/10 25/41/10
f 25/47/6 29/54/6 21/38/6
f 21/55/12 30/56/12 22/57/12
f 33/58/6 39/59/6 37/60/6
f 29/54/6 35/61/6 33/58/6
f 32/62/13 35/63/13 31/53/13
f 30/64/5 36/65/5 32/48/5
f 38/66/5 44/67/5 40/68/5
f 36/69/14 39/70/14 35/63/14
f 34/71/5 40/68/5 36/65/5
f 33/72/15 38/73/15 34/74/15
f 44/67/5 46/75/5 48/76/5
f 38/73/12 105/77/12 42/78/12
f 39/59/6 41/79/6 37/60/6
f 39/70/10 103/80/10 101/81/10
f 47/82/6 49/83/6 45/84/6
f 41/85/16 46/86/16 42/78/16
f 43/87/6 45/84/6 41/79/6
f 44/88/17 47/89/17 43/90/17
f 57/91/6 53/92/6 58/93/6
f 48/94/18 51/95/18 47/89/18
f 48/76/5 50/96/5 52/97/5
f 45/98/19 50/99/19 46/86/19
f 53/100/2 56/101/2 54/102/2
f 59/103/10 55/104/10 57/105/10
f 60/106/5 56/107/5 59/108/5
f 53/100/2 116/109/2 61/110/2
f 49/111/12 60/112/12 50/99/12
f 50/96/5 59/108/5 52/97/5
f 52/113/10 57/105/10 51/114/10
f 51/115/6 58/93/6 49/83/6
f 64/116/12 62/117/12 63/118/12
f 53/92/6 64/119/6 58/93/6
f 60/106/5 62/120/5 54/121/5
f 60/122/4 119/123/4 63/124/4
f 68/125/6 71/126/6 67/127/6
f 8/14/6 67/127/6 6/128/6
f 7/13/5 66/129/5 65/130/5
f 7/6/20 68/131/20 8/4/20
f 69/132/21 76/133/21 72/134/21
f 66/129/5 69/135/5 65/130/5
f 65/136/2 72/134/2 68/131/2
f 67/137/4 70/138/4 66/139/4
f 74/140/5 77/141/5 73/142/5
f 71/143/22 74/144/22 70/145/22
f 72/146/6 75/147/6 71/126/6
f 69/135/5 74/140/5 73/142/5
f 79/148/12 77/149/12 78/150/12
f 112/151/12 84/152/12 77/149/12
f 75/153/4 78/154/4 74/155/4
f 76/156/6 79/157/6 75/147/6
f 82/158/5 88/159/5 86/160/5
f 76/133/10 111/161/10 115/162/10
f 76/156/6 83/163/6 80/164/6
f 77/141/5 82/158/5 73/142/5
f 85/165/6 91/166/6 87/167/6
f 82/168/23 85/169/23 81/170/23
f 81/171/6 87/167/6 83/163/6
f 83/172/24 88/173/24 84/152/24
f 91/174/25 96/175/25 92/176/25
f 87/177/12 92/176/12 88/173/12
f 88/159/5 90/178/5 86/160/5
f 86/179/10 89/180/10 85/181/10
f 94/182/2 95/183/2 93/184/2
f 92/185/5 94/186/5 90/178/5
f 90/187/26 93/184/26 89/180/26
f 91/166/6 93/188/6 95/189/6
f 106/190/10 104/191/10 40/192/10
f 98/193/4 97/194/4 107/195/4
f 97/196/12 100/197/12 37/198/12
f 104/199/6 105/200/6 102/201/6
f 99/202/2 101/81/2 103/80/2
f 100/203/5 98/204/5 101/205/5
f 113/206/10 73/207/10 82/208/10
f 113/209/4 108/210/4 112/211/4
f 108/212/12 80/213/12 83/172/12
f 111/214/6 112/215/6 110/216/6
f 110/217/2 115/162/2 111/161/2
f 114/218/5 109/219/5 115/220/5
f 117/221/12 116/222/12 124/223/12
f 118/224/2 54/102/2 62/225/2
f 117/226/4 58/227/4 64/228/4
f 120/229/10 123/230/10 121/231/10
f 121/232/6 118/233/6 120/234/6
f 116/235/5 123/236/5 122/237/5
f 6/1/1 67/238/1 66/2/1
f 8/4/2 12/239/2 11/5/2
f 9/7/3 15/17/3 16/8/3
f 10/9/4 6/240/4 5/10/4
f 11/11/5 9/20/5 5/12/5
f 8/14/6 6/128/6 10/15/6
f 15/17/7 19/26/7 20/18/7
f 11/11/5 14/241/5 15/19/5
f 12/16/6 10/15/6 16/21/6
f 12/23/8 13/242/8 14/24/8
f 19/26/4 23/34/4 24/27/4
f 15/19/5 14/241/5 18/28/5
f 16/21/6 20/37/6 17/30/6
f 13/31/9 17/39/9 18/32/9
f 23/34/4 27/42/4 28/35/4
f 18/28/5 22/44/5 23/36/5
f 20/37/6 24/46/6 21/38/6
f 17/39/2 21/243/2 22/40/2
f 25/41/10 28/35/10 27/42/10
f 22/44/5 26/49/5 27/45/5
f 24/46/6 28/244/6 25/47/6
f 22/44/5 30/64/5 32/48/5
f 29/50/11 33/245/11 34/51/11
f 26/43/10 32/62/10 31/53/10
f 25/47/6 31/246/6 29/54/6
f 21/55/12 29/247/12 30/56/12
f 33/58/6 35/61/6 39/59/6
f 29/54/6 31/246/6 35/61/6
f 32/62/13 36/69/13 35/63/13
f 30/64/5 34/71/5 36/65/5
f 38/66/5 42/248/5 44/67/5
f 36/69/14 40/192/14 39/70/14
f 34/71/5 38/66/5 40/68/5
f 33/72/15 37/198/15 38/73/15
f 44/67/5 42/248/5 46/75/5
f 38/73/12 37/198/12 99/249/12
f 38/73/12 99/249/12 102/250/12
f 105/77/12 107/251/12 42/78/12
f 38/73/12 102/250/12 105/77/12
f 39/59/6 43/87/6 41/79/6
f 39/70/10 40/192/10 103/80/10
f 101/81/10 98/252/10 39/70/10
f 98/252/10 43/253/10 39/70/10
f 47/82/6 51/115/6 49/83/6
f 41/85/16 45/98/16 46/86/16
f 43/87/6 47/82/6 45/84/6
f 44/88/17 48/94/17 47/89/17
f 57/91/6 55/254/6 53/92/6
f 48/94/18 52/255/18 51/95/18
f 48/76/5 46/75/5 50/96/5
f 45/98/19 49/111/19 50/99/19
f 53/100/2 55/104/2 56/101/2
f 59/103/10 56/101/10 55/104/10
f 60/106/5 54/121/5 56/107/5
f 53/100/2 124/256/2 116/109/2
f 116/109/2 122/257/2 61/110/2
f 49/111/12 58/258/12 60/112/12
f 50/96/5 60/106/5 59/108/5
f 52/113/10 59/103/10 57/105/10
f 51/115/6 57/91/6 58/93/6
f 64/116/12 61/259/12 62/117/12
f 53/92/6 61/260/6 64/119/6
f 60/106/5 63/261/5 62/120/5
f 60/122/4 58/227/4 117/226/4
f 119/123/4 121/262/4 63/124/4
f 60/122/4 117/226/4 119/123/4
f 68/125/6 72/146/6 71/126/6
f 8/14/6 68/125/6 67/127/6
f 7/13/5 5/12/5 66/129/5
f 7/6/20 65/136/20 68/131/20
f 69/132/21 73/207/21 76/133/21
f 66/129/5 70/263/5 69/135/5
f 65/136/2 69/132/2 72/134/2
f 67/137/4 71/264/4 70/138/4
f 74/140/5 78/265/5 77/141/5
f 71/143/22 75/266/22 74/144/22
f 72/146/6 76/156/6 75/147/6
f 69/135/5 70/263/5 74/140/5
f 79/148/12 80/213/12 77/149/12
f 77/149/12 80/213/12 110/267/12
f 80/213/12 114/268/12 110/267/12
f 110/267/12 112/151/12 77/149/12
f 75/153/4 79/269/4 78/154/4
f 76/156/6 80/164/6 79/157/6
f 82/158/5 84/270/5 88/159/5
f 76/133/10 73/207/10 111/161/10
f 115/162/10 109/271/10 76/133/10
f 109/271/10 81/272/10 76/133/10
f 76/156/6 81/171/6 83/163/6
f 77/141/5 84/270/5 82/158/5
f 85/165/6 89/273/6 91/166/6
f 82/168/23 86/274/23 85/169/23
f 81/171/6 85/165/6 87/167/6
f 83/172/24 87/177/24 88/173/24
f 91/174/25 95/275/25 96/175/25
f 87/177/12 91/174/12 92/176/12
f 88/159/5 92/185/5 90/178/5
f 86/179/10 90/187/10 89/180/10
f 94/182/2 96/276/2 95/183/2
f 92/185/5 96/277/5 94/186/5
f 90/187/26 94/182/26 93/184/26
f 91/166/6 89/273/6 93/188/6
f 44/278/10 43/253/10 98/252/10
f 44/278/10 98/252/10 106/190/10
f 104/191/10 103/80/10 40/192/10
f 44/278/27 106/190/27 40/192/27
f 107/195/4 105/279/4 106/280/4
f 106/280/4 98/193/4 107/195/4
f 41/85/12 42/78/12 107/251/12
f 41/85/12 107/251/12 97/196/12
f 100/197/12 99/249/12 37/198/12
f 41/85/12 97/196/12 37/198/12
f 104/199/6 106/281/6 105/200/6
f 103/80/2 104/191/2 102/282/2
f 99/202/2 100/283/2 101/81/2
f 103/80/2 102/282/2 99/202/2
f 100/203/5 97/284/5 98/204/5
f 82/208/10 81/272/10 113/206/10
f 81/272/10 109/271/10 113/206/10
f 113/206/10 111/161/10 73/207/10
f 113/209/4 109/285/4 108/210/4
f 83/172/12 84/152/12 112/151/12
f 108/212/12 114/268/12 80/213/12
f 83/172/12 112/151/12 108/212/12
f 111/214/6 113/286/6 112/215/6
f 110/217/2 114/287/2 115/162/2
f 114/218/5 108/288/5 109/219/5
f 124/223/12 118/289/12 119/290/12
f 119/290/12 117/221/12 124/223/12
f 62/225/2 61/110/2 122/257/2
f 62/225/2 122/257/2 120/229/2
f 124/256/2 53/100/2 54/102/2
f 62/225/2 120/229/2 118/224/2
f 118/224/2 124/256/2 54/102/2
f 64/228/4 63/124/4 123/291/4
f 63/124/4 121/262/4 123/291/4
f 123/291/4 117/226/4 64/228/4
f 120/229/10 122/257/10 123/230/10
f 121/232/6 119/292/6 118/233/6
f 116/235/5 117/293/5 123/236/5
usemtl Material.002
f 2/294/6 3/295/6 1/296/6
f 2/294/6 4/297/6 3/295/6
usemtl Material.003
f 126/298/12 127/299/12 125/300/12
f 128/301/2 131/302/2 127/303/2
f 132/304/10 129/305/10 131/302/10
f 130/306/4 125/307/4 129/308/4
f 131/309/5 125/310/5 127/311/5
f 128/312/6 130/313/6 132/314/6
f 126/298/12 128/315/12 127/299/12
f 128/301/2 132/304/2 131/302/2
f 132/304/10 130/316/10 129/305/10
f 130/306/4 126/317/4 125/307/4
f 131/309/5 129/318/5 125/310/5
f 128/312/6 126/319/6 130/313/6
